<svg width="45" height="45" xmlns="http://www.w3.org/2000/svg" xmlns:xlink="http://www.w3.org/1999/xlink" xml:space="preserve" overflow="hidden"><g transform="translate(-121 -360)"><path d="M139 393 140.5 396 128.5 396 128.5 402 158.5 402 158.5 396 146.5 396 148 393 158.5 393C160.157 393 161.5 394.343 161.5 396L161.5 402C161.5 403.657 160.157 405 158.5 405L128.5 405C126.843 405 125.5 403.657 125.5 402L125.5 396C125.5 394.343 126.843 393 128.5 393L139 393ZM133 363 154 363C155.657 363 157 364.343 157 366L157 387C157 388.657 155.657 390 154 390L133 390C131.343 390 130 388.657 130 387L130 366C130 364.343 131.343 363 133 363ZM133 366 133 387 154 387 154 366 133 366ZM160 370.5C160.828 370.5 161.5 371.172 161.5 372 161.5 372 161.5 372 161.5 372L161.5 381C161.5 381.828 160.828 382.5 160 382.5 159.172 382.5 158.5 381.828 158.5 381L158.5 372C158.5 371.172 159.172 370.5 160 370.5 160 370.5 160 370.5 160 370.5ZM127 370.5C127.828 370.5 128.5 371.172 128.5 372 128.5 372 128.5 372 128.5 372L128.5 381C128.5 381.828 127.828 382.5 127 382.5 126.172 382.5 125.5 381.828 125.5 381L125.5 372C125.5 371.172 126.172 370.5 127 370.5 127 370.5 127 370.5 127 370.5ZM164.5 373.5C165.329 373.5 166 374.172 166 375L166 378C166 378.828 165.329 379.5 164.5 379.5 163.672 379.5 163 378.828 163 378L163 375C163 374.172 163.672 373.5 164.5 373.5 164.5 373.5 164.5 373.5 164.5 373.5ZM122.5 373.5C123.328 373.5 124 374.172 124 375 124 375 124 375 124 375L124 378C124 378.828 123.328 379.5 122.5 379.5 121.672 379.5 121 378.828 121 378L121 375C121 374.172 121.672 373.5 122.5 373.5ZM137.5 378C138.743 378 139.75 376.993 139.75 375.75 139.75 374.507 138.743 373.5 137.5 373.5 136.257 373.5 135.25 374.507 135.25 375.75 135.25 376.993 136.257 378 137.5 378ZM149.5 378C150.743 378 151.75 376.993 151.75 375.75 151.75 374.507 150.743 373.5 149.5 373.5 148.257 373.5 147.25 374.507 147.25 375.75 147.25 376.993 148.257 378 149.5 378ZM143.5 360C144.328 360 145 360.672 145 361.5L145 364.5C145 365.328 144.328 366 143.5 366 142.672 366 142 365.328 142 364.5L142 361.5C142 360.672 142.672 360 143.5 360ZM140.5 387C141.328 387 142 387.672 142 388.5 142 388.5 142 388.5 142 388.5L142 394.5C142 395.328 141.328 396 140.5 396 139.672 396 139 395.328 139 394.5L139 388.5C139 387.672 139.672 387 140.5 387ZM146.5 387C147.328 387 148 387.672 148 388.5L148 394.5C148 395.328 147.328 396 146.5 396 145.672 396 145 395.328 145 394.5L145 388.5C145 387.672 145.672 387 146.5 387 146.5 387 146.5 387 146.5 387Z" fill="#354450"/></g></svg>